<svg aria-hidden="true" style="position: absolute; width: 0; height: 0; overflow: hidden;" version="1.1" xmlns="http://www.w3.org/2000/svg" xmlns:xlink="http://www.w3.org/1999/xlink">
<defs>
<symbol id="icon-box" viewBox="0 0 20 20">
<path d="M18.399 2h-16.799c-0.332 0-0.6 0.267-0.6 0.6v2.4h18v-2.4c0-0.333-0.27-0.6-0.601-0.6zM2 16.6c0 0.77 0.629 1.4 1.399 1.4h13.2c0.77 0 1.4-0.631 1.4-1.4v-10.6h-15.999v10.6zM7 8h6v2h-6v-2z"></path>
</symbol>
<symbol id="icon-briefcase" viewBox="0 0 20 20">
<path d="M9 10h2v2h9c0 0-0.149-4.459-0.2-5.854-0.050-1.326-0.525-2.146-2-2.146h-3.208c-0.497-0.938-1.032-1.945-1.197-2.256-0.331-0.623-0.444-0.744-1.179-0.744h-4.433c-0.735 0-0.847 0.121-1.179 0.744-0.165 0.311-0.7 1.318-1.196 2.256h-3.209c-1.476 0-1.945 0.82-2 2.146s-0.199 5.854-0.199 5.854h9v-2zM7.649 2.916c0.23-0.432 0.308-0.516 0.817-0.516h3.067c0.509 0 0.588 0.084 0.816 0.516 0.086 0.16 0.318 0.6 0.575 1.084h-5.85c0.257-0.484 0.489-0.924 0.575-1.084zM11 15h-2v-2h-8.5c0 0 0.124 1.797 0.199 3.322 0.031 0.633 0.218 1.678 1.8 1.678h15.001c1.582 0 1.765-1.047 1.8-1.678 0.087-1.568 0.2-3.322 0.2-3.322h-8.5v2z"></path>
</symbol>
<symbol id="icon-print" viewBox="0 0 20 20">
<path d="M1.501 6h17c0.57 0 0.477-0.608 0.193-0.707-0.285-0.099-3.443-1.293-3.994-1.293h-0.7v-3h-8v3h-0.699c-0.55 0-3.709 1.194-3.993 1.293s-0.377 0.707 0.193 0.707zM19 7h-18c-0.55 0-1 0.45-1 1v5c0 0.551 0.45 1 1 1h2.283l-0.882 5h15.199l-0.883-5h2.283c0.551 0 1-0.449 1-1v-5c0-0.55-0.449-1-1-1zM4.603 17l1.198-7.003h8.399l1.199 7.003h-10.796z"></path>
</symbol>
<symbol id="icon-signal" viewBox="0 0 20 20">
<path d="M10 14c-1.094 0-1.981 0.894-1.981 2 0 1.104 0.887 2 1.981 2s1.98-0.896 1.98-2c0-1.105-0.886-2-1.98-2zM5.8 11.758l1.4 1.414c1.546-1.562 4.054-1.562 5.601 0l1.399-1.414c-2.319-2.343-6.081-2.343-8.4 0zM3 8.928l1.4 1.414c3.092-3.123 8.106-3.123 11.199 0l1.401-1.414c-3.865-3.904-10.135-3.904-14 0zM0.199 6.1l1.4 1.414c4.639-4.686 12.161-4.686 16.801 0l1.4-1.414c-5.412-5.467-14.188-5.467-19.601 0z"></path>
</symbol>
<symbol id="icon-suitcase" viewBox="0 0 20 20">
<path d="M18 4h-1v15h1c1.1 0 2-0.9 2-2v-11c0-1.1-0.9-2-2-2zM0 6v11c0 1.1 0.899 2 2 2h1v-15h-1c-1.101 0-2 0.9-2 2zM13.5 1.906c-0.681-0.316-1.889-0.906-3.519-0.906-1.633 0-2.8 0.59-3.481 0.906v2.094h-2.5v15h12v-15h-2.5v-2.094zM12 4h-4v-1.336c0.534-0.23 1.078-0.465 1.981-0.465s1.486 0.234 2.019 0.465v1.336z"></path>
</symbol>
<symbol id="icon-soundcloud" viewBox="0 0 20 20">
<path d="M0.672 13.055l0.328-1.401-0.328-1.447c-0.009-0.043-0.092-0.076-0.191-0.076-0.102 0-0.184 0.033-0.191 0.076l-0.29 1.447 0.289 1.4c0.008 0.045 0.090 0.076 0.191 0.076s0.183-0.030 0.192-0.075zM2.723 13.832l0.277-2.164-0.277-3.348c-0.009-0.084-0.114-0.152-0.239-0.152-0.127 0-0.233 0.068-0.238 0.152l-0.246 3.348 0.246 2.164c0.006 0.086 0.111 0.152 0.238 0.152 0.125 0 0.23-0.066 0.239-0.152zM4.768 13.797l0.232-2.127-0.232-4.457c-0.006-0.106-0.129-0.188-0.282-0.188s-0.275 0.082-0.281 0.188l-0.205 4.457 0.205 2.129c0.006 0.103 0.129 0.186 0.281 0.186 0.153-0.001 0.276-0.083 0.282-0.188zM6.81 13.766l0.19-2.096-0.19-4.49c-0.005-0.123-0.146-0.221-0.32-0.221-0.176 0-0.316 0.098-0.321 0.221l-0.169 4.49 0.17 2.096c0.004 0.123 0.145 0.221 0.32 0.221s0.315-0.096 0.32-0.221zM8.85 13.738l0.15-2.066-0.15-5.149c-0.004-0.142-0.164-0.255-0.358-0.255s-0.354 0.115-0.357 0.256l-0.135 5.146 0.135 2.068c0.003 0.141 0.163 0.256 0.357 0.256s0.354-0.113 0.358-0.256zM10.277 13.996c0.008 0 7.1 0.004 7.145 0.004 1.424 0 2.578-1.117 2.578-2.494s-1.154-2.492-2.578-2.492c-0.353 0-0.689 0.070-0.996 0.193-0.205-2.246-2.153-4.008-4.529-4.008-0.581 0-1.148 0.111-1.648 0.297-0.196 0.074-0.247 0.148-0.249 0.295v7.91c0.002 0.153 0.124 0.279 0.277 0.295z"></path>
</symbol>
<symbol id="icon-googleplay" viewBox="0 0 32 32">
<path fill="#607d8b" style="fill: var(--color1, #607d8b)" d="M1.627 0c-0.040 0.124-0.080 0.247-0.080 0.411v30.972c0 0.289 0.081 0.453 0.245 0.617l15.22-16.124zM18.039 16.944l3.935 4.060-5.617 3.2c0 0-7.14 4.059-11.077 6.319zM19.107 15.836l4.221 4.389c0.661-0.368 5.828-3.323 6.565-3.733 0.779-0.451 0.7-1.067 0.039-1.395-0.612-0.34-5.779-3.3-6.56-3.78l-4.271 4.523zM18.036 14.769l3.979-4.225-5.679-3.241c0 0-9.257-5.296-12.337-7.064l14.040 14.531z"></path>
</symbol>
</defs>
</svg>
